# xmcd
#
# Track frame offsets:
#	150
#	15940
#	33615
#	53875
#	71895
#	90822
#	109620
#	127295
#	140812
#	156795
#	175987
#	194907
#	213372
#	229732
#	248752
#	270040
#	291287
#	312127
#
# Disc length: 4453
#
# Revision: 2
# Processed by: cddbd v1.5.1PL0 Copyright (c) Steve Scherf et al.
# Submitted via: CDex 1.40Release
# Normalized: r0:DSWAP,DSETVAR1,TDELIM( - );r1:TSWAP
#
DISCID=04116312
DTITLE=Various Artist - AOR Light Mellow - Toshiba EMI Edition
DYEAR=2001
DGENRE=Rock
TTITLE0=Nielsen and Pearson - If You Should Sail
TTITLE1=America - You Can Do Magic
TTITLE2=Marty Balin - Hearts
TTITLE3=Michael Johnson - This Night Won't Last Forever
TTITLE4=Little River Band - Reminiscing
TTITLE5=Erik Tagg - The Only Things You Said
TTITLE6=Jackie Lomax - Part Of My Life
TTITLE7=Dr Hook - Sexy Eyes
TTITLE8=David Lasley - If I Had My Wish Tonight
TTITLE9=Tavares - We Both Tried
TTITLE10=Robert John - Sad Eyes
TTITLE11=Pieces - Heaven Must Have Made You
TTITLE12=Future Flight - Hypnotic Lady
TTITLE13=Amy Holland - I Still Run To You
TTITLE14=Fee Waybill - Caribbean Sunset
TTITLE15=Avalon - The Writing On The Wall
TTITLE16=Pages - Only A Dreamer
TTITLE17=Adrian Gurvitz - Classic
EXTD=\n\n\n\n\n\n\n\n\n\n\n\n\n\n\n YEAR: 2001 ID3G: 17
EXTT0=
EXTT1=
EXTT2=
EXTT3=
EXTT4=
EXTT5=
EXTT6=
EXTT7=
EXTT8=
EXTT9=
EXTT10=
EXTT11=
EXTT12=
EXTT13=
EXTT14=
EXTT15=
EXTT16=
EXTT17=
PLAYORDER=
